HIERARCHY
ROOT pelvis
{
  OFFSET 0 100 0
  CHANNELS 6 Xposition Yposition Zposition Zrotation Xrotation Yrotation
  JOINT pelvis_right_femur
  {
    OFFSET -10.78128 -3.44521 -0.5502486
    CHANNELS 3 Zrotation Xrotation Yrotation
    JOINT right_femur_tibia
    {
      OFFSET -0.8047443 -44.0398 -0.1307829
      CHANNELS 3 Zrotation Xrotation Yrotation
      JOINT right_tibia_foot
      {
        OFFSET 3.006224 -47.83518 -5
        CHANNELS 3 Zrotation Xrotation Yrotation
        End Site
        {
          OFFSET 0 -5 15
        }
      }
    }
  }
  JOINT pelvis_left_femur
  {
    OFFSET 10.78128 -3.44521 -0.5502486
    CHANNELS 3 Zrotation Xrotation Yrotation
    JOINT left_femur_tibia
    {
      OFFSET 0.8047443 -44.0398 -0.1307829
      CHANNELS 3 Zrotation Xrotation Yrotation
      JOINT left_tibia_foot
      {
        OFFSET -4.370144 -48.10324 -4.275266
        CHANNELS 3 Zrotation Xrotation Yrotation
        End Site
        {
          OFFSET 0 -5 15
        }
      }
    }
  }
  JOINT pelvis_spine1
  {
    OFFSET 0 6.468898 -3.129235
    CHANNELS 3 Zrotation Xrotation Yrotation
    JOINT spine1
    {
      OFFSET 0 23.15396 4.99043
      CHANNELS 3 Zrotation Xrotation Yrotation
      JOINT spine2
      {
        OFFSET 0 20.79997 -5.064912
        CHANNELS 3 Zrotation Xrotation Yrotation
        JOINT neck
        {
          OFFSET 0 14.38658 9.616178
          CHANNELS 3 Zrotation Xrotation Yrotation
          End Site
          {
            OFFSET 0 20 0
          }
        }
      }
      JOINT right_manubrium
      {
        OFFSET -5.722621 16.35077 3.967754
        CHANNELS 3 Zrotation Xrotation Yrotation
        JOINT right_clavicle
        {
          OFFSET -13.16364 1.694482 -4.693211
          CHANNELS 3 Zrotation Xrotation Yrotation
          JOINT right_humerus
          {
            OFFSET -28.5034 -0.3100689 -2.792744
            CHANNELS 3 Zrotation Xrotation Yrotation
            JOINT right_radius
            {
              OFFSET -25.15693 0.02248979 -1.271978
              CHANNELS 3 Zrotation Xrotation Yrotation
              End Site
              {
                OFFSET -15 0 0
              }
            }
          }
        }
      }
      JOINT left_manubrium
      {
        OFFSET 5.722621 16.35077 3.967754
        CHANNELS 3 Zrotation Xrotation Yrotation
        JOINT left_clavicle
        {
          OFFSET 13.16364 1.694482 -4.693211
          CHANNELS 3 Zrotation Xrotation Yrotation
          JOINT left_humerus
          {
            OFFSET 29.39168 -1.063119 -2.237045
            CHANNELS 3 Zrotation Xrotation Yrotation
            JOINT left_radius
            {
              OFFSET 24.59957 -0.9528479 0.9047498
              CHANNELS 3 Zrotation Xrotation Yrotation
              End Site
              {
                OFFSET 15 -0 -0
              }
            }
          }
        }
      }
    }
  }
}
MOTION
Frames: 21
Frame Time: 0.0416666666667
41.95456 100.5923 254.8204 2.87989 -8.481976 1.64871 -0.8868032 22.72488 7.669346 -0 21.79031 -0 7.304746 -13.42392 -0.03684777 -1.405836 -23.97409 -5.802072 -0 27.1907 -0 -7.111173 -6.34704 19.25863 -1.445299 -0.7442944 10.02778 -2.024191 9.940488 -1.784446 2.647024 21.98758 4.953845 1.512084 -14.58968 7.546155 1.436917 -21.49007 11.17342 80.47468 21.52489 -5.266862 -0 0 26.81666 -26.2386 13.92034 13.53945 4.257332 -13.56182 -3.151109 -93.86669 22.64047 26.18316 0 0 -8.978635 -3.453344 5.978125 17.52693
43.47979 100.5684 261.5583 3.089614 -8.608444 1.945213 -1.530803 21.74556 7.197175 -0 27.7259 -0 7.611886 -12.01184 -0.6761698 -2.526106 -21.61899 -6.702023 -0 26.04041 -0 -6.982371 -6.94278 18.77939 -1.76695 -0.9702735 9.690856 -2.097564 9.663376 -1.824242 2.721899 22.15033 4.943374 1.347436 -14.49399 7.778116 1.545513 -20.92905 10.88491 80.99068 21.49859 -5.65088 -0 0 25.96238 -26.00304 13.8417 13.30476 4.093627 -13.21475 -3.173691 -93.38083 22.98177 25.66228 0 0 -8.593433 -3.451835 6.068333 17.64807
45.01573 100.9602 268.2517 3.347363 -8.822967 2.547055 -2.02213 19.58308 6.550218 -0 33.70331 -0 7.699399 -10.52418 -1.583822 -3.680625 -18.19812 -7.548526 -0 25.51295 -0 -6.827427 -7.680821 18.2459 -2.122271 -1.124938 9.173215 -2.08244 9.463797 -1.985161 2.764959 22.40493 4.964308 1.172244 -14.33258 8.025996 1.763406 -20.11188 10.61739 81.81281 21.65522 -6.566263 -0 0 24.46996 -25.58891 13.82688 12.90377 3.962337 -13.16554 -3.263898 -92.51761 23.38364 24.42511 0 0 -8.738003 -3.296597 6.248424 17.5584
46.52659 101.7081 274.7729 3.576111 -9.100221 3.409493 -2.240004 16.11448 5.764575 -0 38.94853 -0 7.530019 -9.316671 -2.652072 -4.66865 -13.94379 -8.250201 -0 25.00461 -0 -6.654976 -8.599646 17.66255 -2.429064 -1.104962 8.423907 -1.98422 9.312687 -2.292117 2.763339 22.73725 5.020224 0.9775123 -14.10618 8.284422 2.01138 -19.14881 10.37728 82.87913 21.9576 -7.869836 -0 0 22.57417 -25.01568 13.85471 12.38951 3.886562 -13.43336 -3.423992 -91.28139 23.81814 22.46323 0 0 -9.440712 -2.972404 6.523412 17.22968
47.97738 102.6811 281.0208 3.737775 -9.392429 4.467299 -2.188806 11.44164 4.916786 -0 42.82244 -0 7.093404 -8.55762 -3.782194 -5.397184 -9.120035 -8.787075 -0 24.16425 -0 -6.479015 -9.699727 17.03055 -2.646683 -0.8856738 7.450573 -1.811191 9.177318 -2.75113 2.723773 23.12046 5.101737 0.7668048 -13.8278 8.545349 2.216767 -18.11782 10.15494 84.12415 22.35539 -9.441573 -0 0 20.47414 -24.31238 13.90048 11.80601 3.886511 -13.99649 -3.643541 -89.71954 24.24179 19.83961 0 0 -10.67875 -2.482459 6.889304 16.65756
49.34186 103.7047 286.9648 3.842994 -9.603625 5.652041 -2.00259 5.963024 4.107187 -0 44.67496 -0 6.417928 -8.20072 -4.87854 -5.865936 -4.054944 -9.187151 -0 22.93289 -0 -6.322078 -10.93949 16.34785 -2.793068 -0.544144 6.338108 -1.573793 9.014355 -3.345488 2.682681 23.50814 5.17822 0.5627613 -13.52571 8.794433 2.300867 -17.05687 9.915256 85.46555 22.78125 -11.18453 -0 0 18.33887 -23.52116 13.93121 11.18724 3.992656 -14.78634 -3.891924 -87.93344 24.60623 16.70313 0 0 -12.38773 -1.850248 7.336551 15.85679
50.60905 104.5817 292.6613 3.918818 -9.622128 6.898766 -1.840902 0.214747 3.408621 -0 43.93835 -0 5.555792 -8.100372 -5.855419 -6.115213 0.9129143 -9.491589 -0 21.42165 -0 -6.209646 -12.25573 15.61283 -2.917429 -0.2012707 5.20653 -1.284571 8.78011 -4.042958 2.688379 23.84805 5.21 0.3959174 -13.23459 9.013991 2.194403 -15.9814 9.618351 86.81196 23.169 -13.01374 -0 0 16.30574 -22.68723 13.91347 10.55835 4.237033 -15.71416 -4.128042 -86.05071 24.87503 13.2486 0 0 -14.4794 -1.108642 7.852982 14.85299
51.78003 105.1345 298.2173 3.976322 -9.406664 8.146946 -1.774147 -5.365233 2.833059 -0 40.616 -0 4.556303 -8.149703 -6.675974 -6.192769 5.556195 -9.730657 -0 19.83787 -0 -6.159446 -13.58246 14.84079 -3.052108 0.06600135 4.150306 -0.9605049 8.460918 -4.791902 2.764898 24.11125 5.174055 0.2834283 -12.98273 9.189308 1.893567 -14.90353 9.262992 88.09298 23.48412 -14.85404 -0 0 14.43195 -21.83709 13.83247 9.926074 4.617917 -16.70553 -4.318462 -84.18821 25.03226 9.67061 0 0 -16.8326 -0.2892139 8.421619 13.68644
52.86052 105.266 303.7462 4.01437 -9.010621 9.336872 -1.768958 -10.42088 2.35509 -0 35.44617 -0 3.456225 -8.322179 -7.359282 -6.147932 9.747192 -9.912881 -0 18.52924 -0 -6.182132 -14.84041 14.07764 -3.19369 0.2412504 3.239393 -0.6253458 8.08237 -5.504617 2.902737 24.29581 5.067975 0.2254703 -12.79669 9.305509 1.478496 -13.84375 8.901661 89.255 23.72639 -16.62285 -0 0 12.68359 -20.97018 13.69427 9.270149 5.084239 -17.6979 -4.437427 -82.45977 25.0828 6.186866 0 0 -19.26226 0.5750815 9.020514 12.42009
53.85522 104.9924 309.3437 4.030423 -8.538662 10.40684 -1.73731 -14.64968 1.95261 -0 29.54361 -0 2.28332 -8.63209 -7.952408 -6.026429 13.40809 -10.03109 -0 17.9113 -0 -6.281539 -15.93789 13.38817 -3.315108 0.3401076 2.525168 -0.3036696 7.691939 -6.080374 3.074209 24.41569 4.901023 0.2130821 -12.70013 9.34833 1.066741 -12.83064 8.608397 90.255 23.91526 -18.2337 -0 0 10.98643 -20.07229 13.51416 8.558946 5.558864 -18.63304 -4.467357 -80.97031 25.0527 3.023858 0 0 -21.54812 1.448348 9.627327 11.13015
54.76714 104.4153 315.0852 4.013658 -8.088711 11.29897 -1.590813 -17.86417 1.644414 -0 23.85874 -0 1.066344 -9.06278 -8.485868 -5.847454 16.4806 -10.08319 -0 18.28126 -0 -6.452137 -16.77469 12.8345 -3.383022 0.3784249 2.017408 -0.01085218 7.33353 -6.467037 3.254166 24.49354 4.68633 0.2362542 -12.69809 9.312514 0.7374703 -11.89649 8.424546 91.06905 24.07216 -19.61501 -0 0 9.315711 -19.14177 13.30332 7.787932 5.977521 -19.45372 -4.408402 -79.79593 24.98395 0.3592515 0 0 -23.49765 2.292572 10.22358 9.889573
55.60011 103.6873 321.0281 3.933745 -7.753951 11.97392 -1.235541 -19.92502 1.514379 -0 19.20166 -0 -0.1509163 -9.525758 -8.949582 -5.584874 18.86544 -10.08493 -0 19.86656 -0 -6.682546 -17.19382 12.49401 -3.351676 0.3589431 1.678554 0.2447046 7.048198 -6.673236 3.423938 24.56515 4.438522 0.2865458 -12.77186 9.201465 0.5206256 -11.08605 8.348789 91.68378 24.21304 -20.68618 -0 0 7.740772 -18.20032 13.06581 6.997684 6.285325 -20.07709 -4.280025 -79.01805 24.93214 -1.632743 0 0 -24.89983 3.053565 10.7919 8.785609
56.36052 102.9917 327.2096 3.75529 -7.621637 12.42075 -0.5864325 -20.70796 1.669336 -0 16.25943 -0 -1.314127 -9.899975 -9.303907 -5.18991 20.42292 -10.0623 -0 22.84688 -0 -6.956293 -17.01478 12.45534 -3.172895 0.2793782 1.450501 0.4570167 6.873674 -6.739259 3.569792 24.67248 4.172192 0.3571362 -12.88995 9.023174 0.4187928 -10.45254 8.357563 92.08692 24.34924 -21.35751 -0 0 6.387064 -17.2848 12.8025 6.255482 6.432761 -20.40816 -4.112812 -78.72281 24.95565 -2.779322 0 0 -25.53336 3.665878 11.31756 7.914224
57.05724 102.5069 333.6365 3.481768 -7.732492 12.64937 0.3458441 -20.18611 2.121997 -0 15.21086 -0 -2.384723 -10.13972 -9.514294 -4.663836 21.02534 -10.02407 -0 27.17405 -0 -7.241388 -16.19189 12.77034 -2.843251 0.1597759 1.306508 0.6217061 6.826648 -6.697265 3.685799 24.83962 3.89938 0.443456 -13.02609 8.789365 0.4207234 -10.03845 8.429845 92.26431 24.48829 -21.57248 -0 0 5.35442 -16.43742 12.5128 5.620914 6.399054 -20.41003 -3.936624 -78.9414 25.0841 -3.011956 0 0 -25.2924 4.084444 11.79459 7.331548
57.70312 102.3549 340.253 3.182543 -8.075305 12.67631 1.407847 -18.42341 2.742589 -0 15.55092 -0 -3.346447 -10.32943 -9.561174 -4.107246 20.48839 -9.942624 -0 32.48224 -0 -7.468065 -14.88119 13.45187 -2.43152 0.07039373 1.282466 0.7321168 6.900617 -6.550716 3.773044 25.06751 3.631512 0.5436343 -13.16213 8.516616 0.507572 -9.889205 8.558891 92.18202 24.63427 -21.29362 -0 0 4.715299 -15.71919 12.19072 5.150315 6.196993 -20.12531 -3.781787 -79.64949 25.30599 -2.374276 0 0 -24.19726 4.284224 12.22243 7.049902
58.31528 102.565 346.9235 2.962167 -8.606802 12.51436 2.375956 -15.53793 3.332813 -0 16.37926 -0 -4.196405 -10.62979 -9.437033 -3.674379 18.58744 -9.773005 -0 38.19128 -0 -7.543619 -13.35582 14.48397 -2.048731 0.1111065 1.450366 0.7789694 7.074353 -6.283473 3.835368 25.34255 3.380928 0.6572756 -13.2857 8.224499 0.6560413 -10.05433 8.747498 91.79339 24.78582 -20.48943 -0 0 4.529916 -15.20535 11.82702 4.900867 5.861616 -19.64158 -3.676867 -80.79631 25.57979 -0.9693076 0 0 -22.33917 4.252544 12.60105 7.055861
58.91075 103.0855 353.4752 2.876222 -9.255944 12.16914 3.100499 -11.7203 3.753189 -0 16.98696 -0 -4.935758 -11.14308 -9.146839 -3.438687 15.27921 -9.510475 -0 43.64707 -0 -7.423506 -11.84466 15.80219 -1.772508 0.3304625 1.841791 0.7564402 7.31322 -5.888264 3.873092 25.64178 3.160881 0.7817505 -13.39507 7.930866 0.8354939 -10.54734 8.991073 91.09029 24.93184 -19.17267 -0 0 4.820877 -14.94929 11.42058 4.909336 5.445943 -19.03867 -3.628055 -82.31461 25.84681 1.073413 0 0 -19.86479 4.00541 12.93026 7.308299
59.50316 103.8 359.7706 2.900497 -9.896925 11.6472 3.533615 -7.265012 3.941812 -0 17.00924 -0 -5.561307 -11.85996 -8.696439 -3.338694 10.79322 -9.215754 -0 47.93814 -0 -7.134499 -10.50591 17.27515 -1.621592 0.6854557 2.414583 0.6619787 7.556837 -5.377005 3.876766 25.92702 2.992239 0.9089888 -13.50406 7.654425 0.9918401 -11.33458 9.263772 90.12321 25.05221 -17.41268 -0 0 5.582578 -14.98917 10.98115 5.202688 5.036424 -18.3747 -3.606632 -84.10921 26.03305 3.599663 0 0 -16.99636 3.600421 13.20954 7.726911
60.10415 104.5368 365.7555 2.966656 -10.36484 10.9671 3.687433 -2.529296 3.879398 -0 16.30244 -0 -6.066206 -12.69764 -8.086148 -3.242616 5.533068 -8.97275 -0 49.95725 -0 -6.739874 -9.458054 18.73385 -1.574893 1.073421 3.078914 0.4957299 7.727922 -4.774832 3.829774 26.14951 2.902579 1.027521 -13.63697 7.415534 1.052335 -12.35533 9.522343 88.97998 25.12492 -15.31411 -0 0 6.797219 -15.3582 10.52259 5.806094 4.740608 -17.69389 -3.563562 -86.05744 26.06338 6.437055 0 0 -14.00318 3.122951 13.43936 8.205656
60.7282 105.105 371.4517 3.016829 -10.55559 10.16382 3.613172 2.196317 3.584638 -0 14.93368 -0 -6.453644 -13.56279 -7.322357 -3.057335 -0.08607664 -8.823984 -0 49.0999 -0 -6.294762 -8.744297 20.05306 -1.595272 1.405902 3.750153 0.2665928 7.782038 -4.115941 3.723345 26.27678 2.909164 1.131414 -13.8142 7.228249 0.9700496 -13.54436 9.728391 87.75208 25.13358 -12.99324 -0 0 8.413066 -16.0539 10.05364 6.7115 4.621835 -17.02606 -3.466322 -88.04107 25.89475 9.427802 0 0 -11.09164 2.649555 13.62319 8.660477
61.39729 105.3538 376.9277 3.008404 -10.46498 9.287521 3.389595 6.700804 3.103372 -0 13.23224 -0 -6.748847 -14.35993 -6.423303 -2.751518 -5.625463 -8.7653 -0 45.54164 -0 -5.846264 -8.31253 21.16489 -1.633774 1.630734 4.357492 -0.003880122 7.731871 -3.450741 3.563921 26.30001 3.014967 1.22616 -14.05164 7.100392 0.7401096 -14.83186 9.853365 86.53298 25.06948 -10.58874 -0 0 10.32314 -17.02607 9.578357 7.863216 4.674218 -16.39095 -3.31046 -89.94722 25.52346 12.42626 0 0 -8.381096 2.246396 13.76715 9.039332
